<?xml version="1.0" encoding="UTF-8" standalone="no"?>
<!-- Generated by IcoMoon.io -->

<svg
   xmlns:dc="http://purl.org/dc/elements/1.1/"
   xmlns:cc="http://creativecommons.org/ns#"
   xmlns:rdf="http://www.w3.org/1999/02/22-rdf-syntax-ns#"
   xmlns:svg="http://www.w3.org/2000/svg"
   xmlns="http://www.w3.org/2000/svg"
   xmlns:sodipodi="http://sodipodi.sourceforge.net/DTD/sodipodi-0.dtd"
   xmlns:inkscape="http://www.inkscape.org/namespaces/inkscape"
   version="1.1"
   width="384"
   height="448"
   viewBox="0 0 384 448"
   id="svg4170"
   inkscape:version="0.91 r13725"
   sodipodi:docname="logo-linkedin.svg">
  <metadata
     id="metadata4179">
    <rdf:RDF>
      <cc:Work
         rdf:about="">
        <dc:format>image/svg+xml</dc:format>
        <dc:type
           rdf:resource="http://purl.org/dc/dcmitype/StillImage" />
      </cc:Work>
    </rdf:RDF>
  </metadata>
  <defs
     id="defs4177" />
  <sodipodi:namedview
     pagecolor="#ffffff"
     bordercolor="#666666"
     borderopacity="1"
     objecttolerance="10"
     gridtolerance="10"
     guidetolerance="10"
     inkscape:pageopacity="0"
     inkscape:pageshadow="2"
     inkscape:window-width="1920"
     inkscape:window-height="1057"
     id="namedview4175"
     showgrid="false"
     inkscape:zoom="0.52678571"
     inkscape:cx="192"
     inkscape:cy="224"
     inkscape:window-x="-8"
     inkscape:window-y="-5"
     inkscape:window-maximized="1"
     inkscape:current-layer="svg4170" />
  <g
     id="icomoon-ignore" />
  <path
     d="M87.25 156.25v247.75h-82.5v-247.75h82.5zM92.5 79.75q0.25 18.25-12.625 30.5t-33.875 12.25h-0.5q-20.5 0-33-12.25t-12.5-30.5q0-18.5 12.875-30.625t33.625-12.125 33.25 12.125 12.75 30.625zM384 262v142h-82.25v-132.5q0-26.25-10.125-41.125t-31.625-14.875q-15.75 0-26.375 8.625t-15.875 21.375q-2.75 7.5-2.75 20.25v138.25h-82.25q0.5-99.75 0.5-161.75t-0.25-74l-0.25-12h82.25v36h-0.5q5-8 10.25-14t14.125-13 21.75-10.875 28.625-3.875q42.75 0 68.75 28.375t26 83.125z"
     id="path4173"
     style="fill:#ffffff;fill-opacity:1" />
</svg>
