<?xml version="1.0" encoding="UTF-8" standalone="no"?>
<!-- Generated by IcoMoon.io -->

<svg
   xmlns:dc="http://purl.org/dc/elements/1.1/"
   xmlns:cc="http://creativecommons.org/ns#"
   xmlns:rdf="http://www.w3.org/1999/02/22-rdf-syntax-ns#"
   xmlns:svg="http://www.w3.org/2000/svg"
   xmlns="http://www.w3.org/2000/svg"
   xmlns:sodipodi="http://sodipodi.sourceforge.net/DTD/sodipodi-0.dtd"
   xmlns:inkscape="http://www.inkscape.org/namespaces/inkscape"
   version="1.1"
   width="512"
   height="512"
   viewBox="0 0 512 512"
   id="svg4147"
   inkscape:version="0.91 r13725"
   sodipodi:docname="logo-google-plus.svg">
  <metadata
     id="metadata4158">
    <rdf:RDF>
      <cc:Work
         rdf:about="">
        <dc:format>image/svg+xml</dc:format>
        <dc:type
           rdf:resource="http://purl.org/dc/dcmitype/StillImage" />
      </cc:Work>
    </rdf:RDF>
  </metadata>
  <defs
     id="defs4156" />
  <sodipodi:namedview
     pagecolor="#ffffff"
     bordercolor="#666666"
     borderopacity="1"
     objecttolerance="10"
     gridtolerance="10"
     guidetolerance="10"
     inkscape:pageopacity="0"
     inkscape:pageshadow="2"
     inkscape:window-width="1920"
     inkscape:window-height="1057"
     id="namedview4154"
     showgrid="false"
     inkscape:zoom="1"
     inkscape:cx="256"
     inkscape:cy="256"
     inkscape:window-x="-8"
     inkscape:window-y="-5"
     inkscape:window-maximized="1"
     inkscape:current-layer="svg4147" />
  <g
     id="icomoon-ignore" />
  <path
     d="M162.9 228.7v55.9h92.4c-3.7 24-27.9 70.3-92.4 70.3-55.6 0-101-46.1-101-102.9s45.4-102.9 101-102.9c31.7 0 52.8 13.5 64.9 25.1l44.2-42.6c-28.4-26.5-65.2-42.6-109.1-42.6-90.1 0.1-162.9 72.9-162.9 163s72.8 162.9 162.9 162.9c94 0 156.4-66.1 156.4-159.2 0-10.7-1.2-18.9-2.6-27h-153.8z"
     id="path4150"
     style="fill-opacity:1;fill:#ffffff" />
  <path
     d="M512 224h-48v-48h-48v48h-48v48h48v48h48v-48h48z"
     id="path4152"
     style="fill-opacity:1;fill:#ffffff" />
</svg>
